<svg width="76" height="54" viewBox="0 0 76 54" fill="none" xmlns="http://www.w3.org/2000/svg">
<path d="M14.7778 0.666748H18.3333V4.22231H14.7778V0.666748ZM18.3333 0.666748H21.8889V4.22231H18.3333V0.666748ZM18.3333 4.22231H21.8889V7.77786H18.3333V4.22231ZM21.8889 4.22231H25.4444V7.77786H21.8889V4.22231ZM14.7778 4.22231H18.3333V7.77786H14.7778V4.22231ZM11.2222 4.22231H14.7778V7.77786H11.2222V4.22231ZM11.2222 7.77786H14.7778V11.3334H11.2222V7.77786ZM7.66665 7.77786H11.2222V11.3334H7.66665V7.77786ZM14.7778 7.77786H18.3333V11.3334H14.7778V7.77786ZM18.3333 7.77786H21.8889V11.3334H18.3333V7.77786ZM21.8889 7.77786H25.4444V11.3334H21.8889V7.77786ZM25.4444 7.77786H29V11.3334H25.4444V7.77786ZM25.4444 11.3334H29V14.889H25.4444V11.3334ZM29 11.3334H32.5555V14.889H29V11.3334ZM21.8889 11.3334H25.4444V14.889H21.8889V11.3334ZM18.3333 11.3334H21.8889V14.889H18.3333V11.3334ZM14.7778 11.3334H18.3333V14.889H14.7778V11.3334ZM11.2222 11.3334H14.7778V14.889H11.2222V11.3334ZM7.66665 11.3334H11.2222V14.889H7.66665V11.3334ZM4.1111 11.3334H7.66665V14.889H4.1111V11.3334ZM11.2222 14.889H14.7778V18.4445H11.2222V14.889ZM7.66665 14.889H11.2222V18.4445H7.66665V14.889ZM4.1111 14.889H7.66665V18.4445H4.1111V14.889ZM0.555542 14.889H4.1111V18.4445H0.555542V14.889ZM0.555542 18.4445H4.1111V22.0001H0.555542V18.4445ZM0.555542 22.0001H4.1111V25.5556H0.555542V22.0001ZM4.1111 22.0001H7.66665V25.5556H4.1111V22.0001ZM4.1111 18.4445H7.66665V22.0001H4.1111V18.4445ZM7.66665 18.4445H11.2222V22.0001H7.66665V18.4445ZM7.66665 22.0001H11.2222V25.5556H7.66665V22.0001ZM7.66665 25.5556H11.2222V29.1112H7.66665V25.5556ZM4.1111 25.5556H7.66665V29.1112H4.1111V25.5556ZM0.555542 25.5556H4.1111V29.1112H0.555542V25.5556ZM0.555542 29.1112H4.1111V32.6668H0.555542V29.1112ZM4.1111 29.1112H7.66665V32.6668H4.1111V29.1112ZM7.66665 29.1112H11.2222V32.6668H7.66665V29.1112ZM11.2222 29.1112H14.7778V32.6668H11.2222V29.1112ZM14.7778 29.1112H18.3333V32.6668H14.7778V29.1112ZM18.3333 29.1112H21.8889V32.6668H18.3333V29.1112ZM21.8889 29.1112H25.4444V32.6668H21.8889V29.1112ZM25.4444 25.5556H29V29.1112H25.4444V25.5556ZM29 25.5556H32.5555V29.1112H29V25.5556ZM29 29.1112H32.5555V32.6668H29V29.1112ZM25.4444 29.1112H29V32.6668H25.4444V29.1112ZM32.5555 29.1112H36.1111V32.6668H32.5555V29.1112ZM32.5555 25.5556H36.1111V29.1112H32.5555V25.5556ZM32.5555 22.0001H36.1111V25.5556H32.5555V22.0001ZM32.5555 18.4445H36.1111V22.0001H32.5555V18.4445ZM32.5555 14.889H36.1111V18.4445H32.5555V14.889ZM29 14.889H32.5555V18.4445H29V14.889ZM25.4444 14.889H29V18.4445H25.4444V14.889ZM21.8889 14.889H25.4444V18.4445H21.8889V14.889ZM29 18.4445H32.5555V22.0001H29V18.4445ZM29 22.0001H32.5555V25.5556H29V22.0001ZM25.4444 22.0001H29V25.5556H25.4444V22.0001ZM25.4444 18.4445H29V22.0001H25.4444V18.4445ZM0.555542 32.6668H4.1111V36.2223H0.555542V32.6668ZM4.1111 32.6668H7.66665V36.2223H4.1111V32.6668ZM7.66665 32.6668H11.2222V36.2223H7.66665V32.6668ZM11.2222 32.6668H14.7778V36.2223H11.2222V32.6668ZM14.7778 32.6668H18.3333V36.2223H14.7778V32.6668ZM18.3333 32.6668H21.8889V36.2223H18.3333V32.6668ZM21.8889 32.6668H25.4444V36.2223H21.8889V32.6668ZM25.4444 32.6668H29V36.2223H25.4444V32.6668ZM29 32.6668H32.5555V36.2223H29V32.6668ZM32.5555 32.6668H36.1111V36.2223H32.5555V32.6668ZM32.5555 36.2223H36.1111V39.7779H32.5555V36.2223ZM29 36.2223H32.5555V39.7779H29V36.2223ZM25.4444 36.2223H29V39.7779H25.4444V36.2223ZM21.8889 36.2223H25.4444V39.7779H21.8889V36.2223ZM18.3333 36.2223H21.8889V39.7779H18.3333V36.2223ZM14.7778 36.2223H18.3333V39.7779H14.7778V36.2223ZM11.2222 36.2223H14.7778V39.7779H11.2222V36.2223ZM4.1111 36.2223H7.66665V39.7779H4.1111V36.2223ZM0.555542 36.2223H4.1111V39.7779H0.555542V36.2223ZM7.66665 36.2223H11.2222V39.7779H7.66665V36.2223ZM7.66665 39.7779H11.2222V43.3334H7.66665V39.7779ZM7.66665 43.3334H11.2222V46.889H7.66665V43.3334ZM7.66665 46.889H11.2222V50.4445H7.66665V46.889ZM7.66665 50.4445H11.2222V54.0001H7.66665V50.4445ZM4.1111 50.4445H7.66665V54.0001H4.1111V50.4445ZM0.555542 50.4445H4.1111V54.0001H0.555542V50.4445ZM0.555542 46.889H4.1111V50.4445H0.555542V46.889ZM0.555542 43.3334H4.1111V46.889H0.555542V43.3334ZM0.555542 39.7779H4.1111V43.3334H0.555542V39.7779ZM4.1111 39.7779H7.66665V43.3334H4.1111V39.7779ZM4.1111 43.3334H7.66665V46.889H4.1111V43.3334ZM4.1111 46.889H7.66665V50.4445H4.1111V46.889ZM25.4444 39.7779H29V43.3334H25.4444V39.7779ZM25.4444 43.3334H29V46.889H25.4444V43.3334ZM25.4444 46.889H29V50.4445H25.4444V46.889ZM25.4444 50.4445H29V54.0001H25.4444V50.4445ZM29 50.4445H32.5555V54.0001H29V50.4445ZM32.5555 50.4445H36.1111V54.0001H32.5555V50.4445ZM32.5555 46.889H36.1111V50.4445H32.5555V46.889ZM32.5555 43.3334H36.1111V46.889H32.5555V43.3334ZM32.5555 39.7779H36.1111V43.3334H32.5555V39.7779ZM29 39.7779H32.5555V43.3334H29V39.7779ZM29 43.3334H32.5555V46.889H29V43.3334ZM29 46.889H32.5555V50.4445H29V46.889Z" fill="#6366F1" style="fill:#6366F1;fill:color(display-p3 0.3882 0.4000 0.9451);fill-opacity:1;"/>
<path d="M43.2118 14.889H46.7673V18.4445H43.2118V14.889ZM46.7673 14.889H50.3229V18.4445H46.7673V14.889ZM50.3229 14.889H53.8785V18.4445H50.3229V14.889ZM53.8785 14.889H57.434V18.4445H53.8785V14.889ZM57.434 14.889H60.9896V18.4445H57.434V14.889ZM60.9896 14.889H64.5451V18.4445H60.9896V14.889ZM64.5451 14.889H68.1007V18.4445H64.5451V14.889ZM68.1007 14.889H71.6562V18.4445H68.1007V14.889ZM68.1007 18.4445H71.6562V22.0001H68.1007V18.4445ZM71.6562 18.4445H75.2118V22.0001H71.6562V18.4445ZM71.6562 14.889H75.2118V18.4445H71.6562V14.889ZM71.6562 22.0001H75.2118V25.5556H71.6562V22.0001ZM68.1007 22.0001H71.6562V25.5556H68.1007V22.0001ZM64.5451 22.0001H68.1007V25.5556H64.5451V22.0001ZM64.5451 18.4445H68.1007V22.0001H64.5451V18.4445ZM60.9896 18.4445H64.5451V22.0001H60.9896V18.4445ZM57.434 18.4445H60.9896V22.0001H57.434V18.4445ZM53.8785 18.4445H57.434V22.0001H53.8785V18.4445ZM50.3229 18.4445H53.8785V22.0001H50.3229V18.4445ZM46.7673 18.4445H50.3229V22.0001H46.7673V18.4445ZM43.2118 18.4445H46.7673V22.0001H43.2118V18.4445ZM43.2118 22.0001H46.7673V25.5556H43.2118V22.0001ZM46.7673 22.0001H50.3229V25.5556H46.7673V22.0001ZM50.3229 22.0001H53.8785V25.5556H50.3229V22.0001ZM53.8785 22.0001H57.434V25.5556H53.8785V22.0001ZM57.434 22.0001H60.9896V25.5556H57.434V22.0001ZM60.9896 22.0001H64.5451V25.5556H60.9896V22.0001ZM64.5451 25.5556H68.1007V29.1112H64.5451V25.5556ZM60.9896 25.5556H64.5451V29.1112H60.9896V25.5556ZM68.1007 25.5556H71.6562V29.1112H68.1007V25.5556ZM64.5451 29.1112H68.1007V32.6668H64.5451V29.1112ZM60.9896 29.1112H64.5451V32.6668H60.9896V29.1112ZM57.434 29.1112H60.9896V32.6668H57.434V29.1112ZM57.434 32.6668H60.9896V36.2223H57.434V32.6668ZM53.8785 32.6668H57.434V36.2223H53.8785V32.6668ZM60.9896 32.6668H64.5451V36.2223H60.9896V32.6668ZM57.434 36.2223H60.9896V39.7779H57.434V36.2223ZM53.8785 36.2223H57.434V39.7779H53.8785V36.2223ZM50.3229 36.2223H53.8785V39.7779H50.3229V36.2223ZM50.3229 39.7779H53.8785V43.3334H50.3229V39.7779ZM46.7673 39.7779H50.3229V43.3334H46.7673V39.7779ZM53.8785 39.7779H57.434V43.3334H53.8785V39.7779ZM50.3229 43.3334H53.8785V46.889H50.3229V43.3334ZM46.7673 43.3334H50.3229V46.889H46.7673V43.3334ZM43.2118 43.3334H46.7673V46.889H43.2118V43.3334ZM43.2118 46.889H46.7673V50.4445H43.2118V46.889ZM46.7673 46.889H50.3229V50.4445H46.7673V46.889ZM46.7673 50.4445H50.3229V54.0001H46.7673V50.4445ZM50.3229 50.4445H53.8785V54.0001H50.3229V50.4445ZM53.8785 50.4445H57.434V54.0001H53.8785V50.4445ZM43.2118 50.4445H46.7673V54.0001H43.2118V50.4445ZM57.434 50.4445H60.9896V54.0001H57.434V50.4445ZM60.9896 50.4445H64.5451V54.0001H60.9896V50.4445ZM64.5451 50.4445H68.1007V54.0001H64.5451V50.4445ZM68.1007 50.4445H71.6562V54.0001H68.1007V50.4445ZM71.6562 50.4445H75.2118V54.0001H71.6562V50.4445ZM71.6562 46.889H75.2118V50.4445H71.6562V46.889ZM71.6562 43.3334H75.2118V46.889H71.6562V43.3334ZM68.1007 43.3334H71.6562V46.889H68.1007V43.3334ZM64.5451 43.3334H68.1007V46.889H64.5451V43.3334ZM60.9896 43.3334H64.5451V46.889H60.9896V43.3334ZM57.434 43.3334H60.9896V46.889H57.434V43.3334ZM53.8785 43.3334H57.434V46.889H53.8785V43.3334ZM50.3229 46.889H53.8785V50.4445H50.3229V46.889ZM53.8785 46.889H57.434V50.4445H53.8785V46.889ZM57.434 46.889H60.9896V50.4445H57.434V46.889ZM60.9896 46.889H64.5451V50.4445H60.9896V46.889ZM64.5451 46.889H68.1007V50.4445H64.5451V46.889ZM68.1007 46.889H71.6562V50.4445H68.1007V46.889Z" fill="#6366F1" style="fill:#6366F1;fill:color(display-p3 0.3882 0.4000 0.9451);fill-opacity:1;"/>
</svg>
