<svg width="128" height="128" viewBox="0 0 128 128" fill="none" xmlns="http://www.w3.org/2000/svg">
<path d="M0 31.2075C0 20.2839 0 14.8221 2.12589 10.6498C3.99587 6.97972 6.97972 3.99588 10.6498 2.12589C14.8221 0 20.2839 0 31.2075 0H96.7925C107.716 0 113.178 0 117.35 2.12589C121.02 3.99588 124.004 6.97972 125.874 10.6498C128 14.8221 128 20.2839 128 31.2075V96.7925C128 107.716 128 113.178 125.874 117.35C124.004 121.02 121.02 124.004 117.35 125.874C113.178 128 107.716 128 96.7925 128H31.2075C20.2839 128 14.8221 128 10.6498 125.874C6.97972 124.004 3.99587 121.02 2.12589 117.35C0 113.178 0 107.716 0 96.7925V31.2075Z" fill="url(#paint0_linear_3389_304)" style=""/>
<path d="M0 31.2075C0 20.2839 0 14.8221 2.12589 10.6498C3.99587 6.97972 6.97972 3.99588 10.6498 2.12589C14.8221 0 20.2839 0 31.2075 0H96.7925C107.716 0 113.178 0 117.35 2.12589C121.02 3.99588 124.004 6.97972 125.874 10.6498C128 14.8221 128 20.2839 128 31.2075V96.7925C128 107.716 128 113.178 125.874 117.35C124.004 121.02 121.02 124.004 117.35 125.874C113.178 128 107.716 128 96.7925 128H31.2075C20.2839 128 14.8221 128 10.6498 125.874C6.97972 124.004 3.99587 121.02 2.12589 117.35C0 113.178 0 107.716 0 96.7925V31.2075Z" fill="url(#paint1_linear_3389_304)" style=""/>
<path d="M76.75 99.9619C76.75 106.695 71.2957 112.152 64.5675 112.152C57.8392 112.152 52.3849 106.695 52.3849 99.9619C52.3849 93.2293 57.8392 87.7714 64.5675 87.7714C71.2957 87.7714 76.75 93.2293 76.75 99.9619Z" fill="white" style="fill:white;fill-opacity:1;"/>
<path d="M80.4049 30.4762C80.405 40.2286 74.3134 68.2667 73.0951 73.1429C71.8768 78.0191 69.4403 81.6762 64.5673 81.6762C59.6943 81.6762 57.2578 78.0191 56.0395 73.1429C54.8213 68.2667 48.7303 40.2286 48.7303 30.4762C48.7303 21.9211 55.8206 14.6286 64.5673 14.6286C73.314 14.6286 80.4048 21.9211 80.4049 30.4762Z" fill="white" style="fill:white;fill-opacity:1;"/>
<defs>
<linearGradient id="paint0_linear_3389_304" x1="87.4668" y1="37.181" x2="27.1238" y2="105.753" gradientUnits="userSpaceOnUse">
<stop stop-color="#2675F5" style="stop-color:#2675F5;stop-color:color(display-p3 0.1490 0.4602 0.9608);stop-opacity:1;"/>
<stop offset="1" stop-color="#235EDF" style="stop-color:#235EDF;stop-color:color(display-p3 0.1368 0.3699 0.8729);stop-opacity:1;"/>
</linearGradient>
<linearGradient id="paint1_linear_3389_304" x1="87.4668" y1="37.181" x2="27.1238" y2="105.753" gradientUnits="userSpaceOnUse">
<stop stop-color="#2675F5" style="stop-color:#2675F5;stop-color:color(display-p3 0.1490 0.4602 0.9608);stop-opacity:1;"/>
<stop offset="1" stop-color="#235EDF" style="stop-color:#235EDF;stop-color:color(display-p3 0.1368 0.3699 0.8729);stop-opacity:1;"/>
</linearGradient>
</defs>
</svg>
