<svg width="196" height="196" viewBox="0 0 196 196" fill="none" xmlns="http://www.w3.org/2000/svg">
<path d="M0 47.7865C0 31.0598 0 22.6963 3.25527 16.3075C6.11868 10.6877 10.6877 6.11868 16.3075 3.25527C22.6963 0 31.0598 0 47.7865 0H148.214C164.94 0 173.304 0 179.693 3.25527C185.312 6.11868 189.881 10.6877 192.745 16.3075C196 22.6963 196 31.0598 196 47.7865V148.214C196 164.94 196 173.304 192.745 179.693C189.881 185.312 185.312 189.881 179.693 192.745C173.304 196 164.94 196 148.214 196H47.7865C31.0598 196 22.6963 196 16.3075 192.745C10.6877 189.881 6.11868 185.312 3.25527 179.693C0 173.304 0 164.94 0 148.214V47.7865Z" fill="url(#paint0_linear_3389_302)" style=""/>
<path d="M0 47.7865C0 31.0598 0 22.6963 3.25527 16.3075C6.11868 10.6877 10.6877 6.11868 16.3075 3.25527C22.6963 0 31.0598 0 47.7865 0H148.214C164.94 0 173.304 0 179.693 3.25527C185.312 6.11868 189.881 10.6877 192.745 16.3075C196 22.6963 196 31.0598 196 47.7865V148.214C196 164.94 196 173.304 192.745 179.693C189.881 185.312 185.312 189.881 179.693 192.745C173.304 196 164.94 196 148.214 196H47.7865C31.0598 196 22.6963 196 16.3075 192.745C10.6877 189.881 6.11868 185.312 3.25527 179.693C0 173.304 0 164.94 0 148.214V47.7865Z" fill="url(#paint1_linear_3389_302)" style=""/>
<path d="M117.523 153.067C117.523 163.376 109.172 171.733 98.8689 171.733C88.5663 171.733 80.2144 163.376 80.2144 153.067C80.2144 142.757 88.5663 134.4 98.8689 134.4C109.172 134.4 117.523 142.757 117.523 153.067Z" fill="white" style="fill:white;fill-opacity:1;"/>
<path d="M123.12 46.6667C123.12 61.6 113.792 104.533 111.927 112C110.061 119.467 106.331 125.067 98.8687 125.067C91.4069 125.067 87.676 119.467 85.8105 112C83.9451 104.533 74.6183 61.6 74.6183 46.6667C74.6183 33.5667 85.4753 22.4 98.8687 22.4C112.262 22.4 123.12 33.5667 123.12 46.6667Z" fill="white" style="fill:white;fill-opacity:1;"/>
<defs>
<linearGradient id="paint0_linear_3389_302" x1="133.933" y1="56.9334" x2="41.5332" y2="161.934" gradientUnits="userSpaceOnUse">
<stop stop-color="#2675F5" style="stop-color:#2675F5;stop-color:color(display-p3 0.1490 0.4602 0.9608);stop-opacity:1;"/>
<stop offset="1" stop-color="#235EDF" style="stop-color:#235EDF;stop-color:color(display-p3 0.1368 0.3699 0.8729);stop-opacity:1;"/>
</linearGradient>
<linearGradient id="paint1_linear_3389_302" x1="133.933" y1="56.9334" x2="41.5332" y2="161.934" gradientUnits="userSpaceOnUse">
<stop stop-color="#2675F5" style="stop-color:#2675F5;stop-color:color(display-p3 0.1490 0.4602 0.9608);stop-opacity:1;"/>
<stop offset="1" stop-color="#235EDF" style="stop-color:#235EDF;stop-color:color(display-p3 0.1368 0.3699 0.8729);stop-opacity:1;"/>
</linearGradient>
</defs>
</svg>
