<svg width="256" height="256" viewBox="0 0 256 256" fill="none" xmlns="http://www.w3.org/2000/svg">
<path d="M0 62.4152C0 40.5679 0 29.6442 4.25178 21.2996C7.99176 13.9595 13.9595 7.99176 21.2996 4.25178C29.6442 0 40.5679 0 62.4152 0H193.585C215.432 0 226.356 0 234.7 4.25178C242.041 7.99176 248.008 13.9595 251.748 21.2996C256 29.6442 256 40.5679 256 62.4152V193.585C256 215.432 256 226.356 251.748 234.7C248.008 242.041 242.041 248.008 234.7 251.748C226.356 256 215.432 256 193.585 256H62.4152C40.5679 256 29.6442 256 21.2996 251.748C13.9595 248.008 7.99176 242.041 4.25178 234.7C0 226.356 0 215.432 0 193.585V62.4152Z" fill="url(#paint0_linear_3304_46)" style=""/>
<path d="M90.5143 72.2286H109.486L91.3524 182.552H72.381L90.5143 72.2286ZM26.4381 137.067H113.524L110.324 156.114H23.1619L26.4381 137.067ZM51.6571 72.2286H70.6286L52.6476 182.552H33.5238L51.6571 72.2286ZM32.6857 98.6667H119.848L116.648 117.714H29.4857L32.6857 98.6667Z" fill="white" style="fill:white;fill-opacity:1;"/>
<path d="M232.838 127.39C232.838 139.225 230.552 149.41 225.981 157.943C221.41 166.425 215.162 172.902 207.238 177.371C199.314 181.841 190.349 184.076 180.343 184.076C170.337 184.076 161.371 181.841 153.448 177.371C145.524 172.902 139.276 166.4 134.705 157.867C130.184 149.333 127.924 139.175 127.924 127.39C127.924 115.556 130.184 105.371 134.705 96.8381C139.276 88.254 145.524 81.7524 153.448 77.3333C161.371 72.9143 170.337 70.7048 180.343 70.7048C190.349 70.7048 199.314 72.9143 207.238 77.3333C215.162 81.7524 221.41 88.254 225.981 96.8381C230.552 105.371 232.838 115.556 232.838 127.39ZM206.324 127.39C206.324 120.127 205.283 113.981 203.2 108.952C201.168 103.873 198.197 100.038 194.286 97.4476C190.375 94.8064 185.727 93.4857 180.343 93.4857C174.959 93.4857 170.337 94.8064 166.476 97.4476C162.616 100.038 159.644 103.873 157.562 108.952C155.479 113.981 154.438 120.127 154.438 127.39C154.438 134.654 155.479 140.8 157.562 145.829C159.644 150.806 162.616 154.616 166.476 157.257C170.337 159.898 174.959 161.244 180.343 161.295C185.727 161.244 190.375 159.898 194.286 157.257C198.197 154.616 201.168 150.806 203.2 145.829C205.283 140.8 206.324 134.654 206.324 127.39Z" fill="white" style="fill:white;fill-opacity:1;"/>
<defs>
<linearGradient id="paint0_linear_3304_46" x1="174.933" y1="74.3619" x2="54.2476" y2="211.505" gradientUnits="userSpaceOnUse">
<stop stop-color="#2675F5" style="stop-color:#2675F5;stop-color:color(display-p3 0.1490 0.4602 0.9608);stop-opacity:1;"/>
<stop offset="1" stop-color="#235EDF" style="stop-color:#235EDF;stop-color:color(display-p3 0.1368 0.3699 0.8729);stop-opacity:1;"/>
</linearGradient>
</defs>
</svg>
