<svg width="1790" height="512" viewBox="0 0 1790 512" fill="none" xmlns="http://www.w3.org/2000/svg">
<path d="M0 124.83C0 81.1357 0 59.2883 8.50357 42.5991C15.9835 27.9189 27.9189 15.9835 42.5991 8.50357C59.2883 0 81.1357 0 124.83 0H387.17C430.864 0 452.712 0 469.401 8.50357C484.081 15.9835 496.016 27.9189 503.496 42.5991C512 59.2883 512 81.1357 512 124.83V387.17C512 430.864 512 452.712 503.496 469.401C496.016 484.081 484.081 496.016 469.401 503.496C452.712 512 430.864 512 387.17 512H124.83C81.1357 512 59.2883 512 42.5991 503.496C27.9189 496.016 15.9835 484.081 8.50357 469.401C0 452.712 0 430.864 0 387.17V124.83Z" fill="url(#paint0_linear_3304_75)" style=""/>
<path d="M181.029 144.457H218.971L182.705 365.105H144.762L181.029 144.457ZM52.8762 274.133H227.048L220.648 312.229H46.3238L52.8762 274.133ZM103.314 144.457H141.257L105.295 365.105H67.0476L103.314 144.457ZM65.3714 197.333H239.695L233.295 235.429H58.9714L65.3714 197.333Z" fill="white" style="fill:white;fill-opacity:1;"/>
<path d="M465.676 254.781C465.676 278.451 461.105 298.819 451.962 315.886C442.819 332.851 430.324 345.803 414.476 354.743C398.629 363.683 380.698 368.152 360.686 368.152C340.673 368.152 322.743 363.683 306.895 354.743C291.048 345.803 278.552 332.8 269.41 315.733C260.368 298.667 255.848 278.349 255.848 254.781C255.848 231.111 260.368 210.743 269.41 193.676C278.552 176.508 291.048 163.505 306.895 154.667C322.743 145.829 340.673 141.41 360.686 141.41C380.698 141.41 398.629 145.829 414.476 154.667C430.324 163.505 442.819 176.508 451.962 193.676C461.105 210.743 465.676 231.111 465.676 254.781ZM412.648 254.781C412.648 240.254 410.565 227.962 406.4 217.905C402.337 207.746 396.394 200.076 388.571 194.895C380.749 189.613 371.454 186.971 360.686 186.971C349.917 186.971 340.673 189.613 332.952 194.895C325.232 200.076 319.289 207.746 315.124 217.905C310.959 227.962 308.876 240.254 308.876 254.781C308.876 269.308 310.959 281.6 315.124 291.657C319.289 301.613 325.232 309.232 332.952 314.514C340.673 319.797 349.917 322.489 360.686 322.59C371.454 322.489 380.749 319.797 388.571 314.514C396.394 309.232 402.337 301.613 406.4 291.657C410.565 281.6 412.648 269.308 412.648 254.781Z" fill="white" style="fill:white;fill-opacity:1;"/>
<path d="M872.584 249.302C872.584 274.646 867.691 296.456 857.905 314.73C848.119 332.895 834.745 346.763 817.783 356.336C800.821 365.908 781.63 370.694 760.21 370.694C738.79 370.694 719.599 365.908 702.637 356.336C685.675 346.763 672.301 332.84 662.516 314.566C652.839 296.292 648 274.538 648 249.302C648 223.958 652.839 202.149 662.516 183.875C672.301 165.492 685.675 151.569 702.637 142.106C719.599 132.642 738.79 127.911 760.21 127.911C781.63 127.911 800.821 132.642 817.783 142.106C834.745 151.569 848.119 165.492 857.905 183.875C867.691 202.149 872.584 223.958 872.584 249.302ZM815.826 249.302C815.826 233.748 813.597 220.586 809.139 209.817C804.79 198.94 798.429 190.728 790.057 185.18C781.685 179.524 771.736 176.696 760.21 176.696C748.685 176.696 738.79 179.524 730.527 185.18C722.263 190.728 715.902 198.94 711.444 209.817C706.986 220.586 704.757 233.748 704.757 249.302C704.757 264.857 706.986 278.018 711.444 288.787C715.902 299.447 722.263 307.605 730.527 313.261C738.79 318.917 748.685 321.8 760.21 321.909C771.736 321.8 781.685 318.917 790.057 313.261C798.429 307.605 804.79 299.447 809.139 288.787C813.597 278.018 815.826 264.857 815.826 249.302Z" fill="black" style="fill:black;fill-opacity:1;"/>
<path d="M960.166 367.43H905.203V190.238H957.394V222.381H959.188C963.211 211.612 969.952 203.182 979.412 197.091C988.871 190.999 1000.07 187.954 1013.01 187.954C1025.3 187.954 1036.06 190.728 1045.3 196.275C1054.65 201.714 1061.83 209.491 1066.83 219.607C1071.94 229.614 1074.5 241.199 1074.5 254.36V367.43H1019.53V264.966C1019.53 258.439 1018.39 252.783 1016.11 247.997C1013.93 243.211 1010.62 239.513 1006.16 236.902C1001.81 234.291 996.591 232.986 990.502 232.986C984.413 232.986 979.085 234.346 974.519 237.065C969.952 239.676 966.418 243.483 963.917 248.486C961.417 253.381 960.166 259.201 960.166 265.945V367.43Z" fill="black" style="fill:black;fill-opacity:1;"/>
<path d="M1191.76 370.694C1173.39 370.694 1157.46 367.05 1143.98 359.762C1130.6 352.474 1120.33 341.977 1113.15 328.272C1105.97 314.566 1102.39 298.305 1102.39 279.487C1102.39 261.43 1105.97 245.441 1113.15 231.518C1120.44 217.595 1130.66 206.88 1143.81 199.375C1157.08 191.761 1172.52 187.954 1190.13 187.954C1206.77 187.954 1221.45 191.435 1234.17 198.396C1247 205.358 1257.06 215.637 1264.34 229.233C1271.63 242.721 1275.27 259.037 1275.27 278.182V292.377H1122.28V259.908H1224.06C1223.95 253.708 1222.48 248.16 1219.65 243.265C1216.83 238.37 1212.91 234.563 1207.91 231.844C1203.02 229.125 1197.42 227.765 1191.11 227.765C1184.59 227.765 1178.72 229.233 1173.5 232.17C1168.28 234.998 1164.15 238.969 1161.1 244.081C1158.17 249.085 1156.64 254.687 1156.53 260.887V293.356C1156.53 300.97 1158 307.605 1160.94 313.261C1163.98 318.809 1168.17 323.16 1173.5 326.314C1178.93 329.36 1185.35 330.883 1192.74 330.883C1197.63 330.883 1202.15 330.175 1206.28 328.761C1210.41 327.347 1213.89 325.444 1216.72 323.051C1219.54 320.549 1221.72 317.612 1223.24 314.24H1274.62C1272.33 325.661 1267.6 335.669 1260.43 344.262C1253.25 352.746 1243.79 359.272 1232.05 363.841C1220.3 368.409 1206.88 370.694 1191.76 370.694Z" fill="black" style="fill:black;fill-opacity:1;"/>
<path d="M1302.51 335.451L1417.81 176.533H1302.34V131.174H1487.95V163.153L1372.64 322.072H1488.11V367.43H1302.51V335.451Z" fill="black" style="fill:black;fill-opacity:1;"/>
<path d="M1522.69 190.238H1577.65V367.43H1522.69V190.238ZM1550.09 169.027C1544.87 169.027 1540.08 167.831 1535.73 165.438C1531.49 163.045 1528.01 159.836 1525.29 155.811C1522.69 151.787 1521.38 147.381 1521.38 142.595C1521.38 137.809 1522.69 133.404 1525.29 129.379C1528.01 125.246 1531.49 121.983 1535.73 119.59C1540.08 117.197 1544.87 116 1550.09 116C1555.2 116 1559.93 117.197 1564.27 119.59C1568.62 121.983 1572.1 125.246 1574.71 129.379C1577.32 133.404 1578.63 137.809 1578.63 142.595C1578.63 147.381 1577.32 151.787 1574.71 155.811C1572.1 159.836 1568.62 163.045 1564.27 165.438C1559.93 167.831 1555.2 169.027 1550.09 169.027Z" fill="black" style="fill:black;fill-opacity:1;"/>
<path d="M1613.04 190.238H1667.19V220.586H1669.31C1669.74 219.498 1670.18 218.519 1670.61 217.649C1673.33 211.993 1676.81 206.989 1681.05 202.638C1685.29 198.287 1690.62 194.752 1697.04 192.033C1703.45 189.313 1710.84 187.954 1719.22 187.954C1732.26 187.954 1744.17 191.271 1754.93 197.907C1765.7 204.542 1774.23 214.712 1780.54 228.418C1786.85 242.123 1790 258.929 1790 278.834C1790 298.305 1786.9 314.893 1780.7 328.598C1774.61 342.195 1766.13 352.528 1755.26 359.599C1744.5 366.56 1732.43 370.041 1719.05 370.041C1710.79 370.041 1703.4 368.736 1696.87 366.125C1690.35 363.406 1684.86 359.871 1680.4 355.52C1676.05 351.06 1672.57 346.002 1669.96 340.346L1669.31 338.877H1668V434H1613.04V190.238ZM1666.54 278.671C1666.64 288.461 1668 296.945 1670.61 304.124C1673.33 311.303 1677.25 316.905 1682.36 320.93C1687.47 324.954 1693.5 326.967 1700.46 326.967C1707.42 326.967 1713.4 324.954 1718.4 320.93C1723.51 316.905 1727.37 311.303 1729.98 304.124C1732.59 296.945 1733.89 288.461 1733.89 278.671C1733.89 268.99 1732.59 260.56 1729.98 253.381C1727.37 246.202 1723.51 240.709 1718.4 236.902C1713.4 232.986 1707.42 231.028 1700.46 231.028C1693.28 231.028 1687.2 232.932 1682.19 236.739C1677.19 240.546 1673.33 246.039 1670.61 253.218C1668 260.397 1666.64 268.881 1666.54 278.671Z" fill="black" style="fill:black;fill-opacity:1;"/>
<defs>
<linearGradient id="paint0_linear_3304_75" x1="349.867" y1="148.724" x2="108.495" y2="423.01" gradientUnits="userSpaceOnUse">
<stop stop-color="#2675F5" style="stop-color:#2675F5;stop-color:color(display-p3 0.1490 0.4602 0.9608);stop-opacity:1;"/>
<stop offset="1" stop-color="#235EDF" style="stop-color:#235EDF;stop-color:color(display-p3 0.1368 0.3699 0.8729);stop-opacity:1;"/>
</linearGradient>
</defs>
</svg>
