<svg width="256" height="256" viewBox="0 0 256 256" fill="none" xmlns="http://www.w3.org/2000/svg">
<path d="M0 62.415C0 40.5679 0 29.6441 4.25178 21.2995C7.99175 13.9594 13.9594 7.99175 21.2995 4.25179C29.6441 0 40.5679 0 62.415 0H193.585C215.432 0 226.356 0 234.701 4.25179C242.041 7.99175 248.008 13.9594 251.748 21.2995C256 29.6441 256 40.5679 256 62.415V193.585C256 215.432 256 226.356 251.748 234.701C248.008 242.041 242.041 248.008 234.701 251.748C226.356 256 215.432 256 193.585 256H62.415C40.5679 256 29.6441 256 21.2995 251.748C13.9594 248.008 7.99175 242.041 4.25178 234.701C0 226.356 0 215.432 0 193.585V62.415Z" fill="url(#paint0_linear_3389_300)" style=""/>
<path d="M0 62.415C0 40.5679 0 29.6441 4.25178 21.2995C7.99175 13.9594 13.9594 7.99175 21.2995 4.25179C29.6441 0 40.5679 0 62.415 0H193.585C215.432 0 226.356 0 234.701 4.25179C242.041 7.99175 248.008 13.9594 251.748 21.2995C256 29.6441 256 40.5679 256 62.415V193.585C256 215.432 256 226.356 251.748 234.701C248.008 242.041 242.041 248.008 234.701 251.748C226.356 256 215.432 256 193.585 256H62.415C40.5679 256 29.6441 256 21.2995 251.748C13.9594 248.008 7.99175 242.041 4.25178 234.701C0 226.356 0 215.432 0 193.585V62.415Z" fill="url(#paint1_linear_3389_300)" style=""/>
<path d="M153.5 199.924C153.5 213.389 142.591 224.305 129.135 224.305C115.678 224.305 104.77 213.389 104.77 199.924C104.77 186.459 115.678 175.543 129.135 175.543C142.591 175.543 153.5 186.459 153.5 199.924Z" fill="white" style="fill:white;fill-opacity:1;"/>
<path d="M160.81 60.9524C160.81 80.4571 148.627 136.533 146.19 146.286C143.754 156.038 138.881 163.352 129.135 163.352C119.389 163.352 114.516 156.038 112.079 146.286C109.643 136.533 97.4606 80.4571 97.4606 60.9524C97.4606 43.8422 111.641 29.2571 129.135 29.2571C146.628 29.2571 160.81 43.8422 160.81 60.9524Z" fill="white" style="fill:white;fill-opacity:1;"/>
<defs>
<linearGradient id="paint0_linear_3389_300" x1="174.934" y1="74.362" x2="54.2475" y2="211.505" gradientUnits="userSpaceOnUse">
<stop stop-color="#2675F5" style="stop-color:#2675F5;stop-color:color(display-p3 0.1490 0.4602 0.9608);stop-opacity:1;"/>
<stop offset="1" stop-color="#235EDF" style="stop-color:#235EDF;stop-color:color(display-p3 0.1368 0.3699 0.8729);stop-opacity:1;"/>
</linearGradient>
<linearGradient id="paint1_linear_3389_300" x1="174.934" y1="74.362" x2="54.2475" y2="211.505" gradientUnits="userSpaceOnUse">
<stop stop-color="#2675F5" style="stop-color:#2675F5;stop-color:color(display-p3 0.1490 0.4602 0.9608);stop-opacity:1;"/>
<stop offset="1" stop-color="#235EDF" style="stop-color:#235EDF;stop-color:color(display-p3 0.1368 0.3699 0.8729);stop-opacity:1;"/>
</linearGradient>
</defs>
</svg>
