<svg width="64" height="64" viewBox="0 0 64 64" fill="none" xmlns="http://www.w3.org/2000/svg">
<path d="M0 15.6038C0 10.142 0 7.41104 1.06295 5.32489C1.99794 3.48986 3.48986 1.99794 5.32489 1.06295C7.41104 0 10.142 0 15.6038 0H48.3962C53.858 0 56.589 0 58.6751 1.06295C60.5101 1.99794 62.0021 3.48986 62.9371 5.32489C64 7.41104 64 10.142 64 15.6038V48.3962C64 53.858 64 56.589 62.9371 58.6751C62.0021 60.5101 60.5101 62.0021 58.6751 62.9371C56.589 64 53.858 64 48.3962 64H15.6038C10.142 64 7.41104 64 5.32489 62.9371C3.48986 62.0021 1.99794 60.5101 1.06295 58.6751C0 56.589 0 53.858 0 48.3962V15.6038Z" fill="url(#paint0_linear_3304_56)" style=""/>
<path d="M22.6286 18.0571H27.3714L22.8381 45.6381H18.0952L22.6286 18.0571ZM6.60952 34.2667H28.381L27.581 39.0286H5.79048L6.60952 34.2667ZM12.9143 18.0571H17.6571L13.1619 45.6381H8.38095L12.9143 18.0571ZM8.17143 24.6667H29.9619L29.1619 29.4286H7.37143L8.17143 24.6667Z" fill="white" style="fill:white;fill-opacity:1;"/>
<path d="M58.2095 31.8476C58.2095 34.8064 57.6381 37.3524 56.4952 39.4857C55.3524 41.6064 53.7905 43.2254 51.8095 44.3429C49.8286 45.4603 47.5873 46.019 45.0857 46.019C42.5841 46.019 40.3429 45.4603 38.3619 44.3429C36.381 43.2254 34.819 41.6 33.6762 39.4667C32.546 37.3333 31.981 34.7937 31.981 31.8476C31.981 28.8889 32.546 26.3429 33.6762 24.2095C34.819 22.0635 36.381 20.4381 38.3619 19.3333C40.3429 18.2286 42.5841 17.6762 45.0857 17.6762C47.5873 17.6762 49.8286 18.2286 51.8095 19.3333C53.7905 20.4381 55.3524 22.0635 56.4952 24.2095C57.6381 26.3429 58.2095 28.8889 58.2095 31.8476ZM51.581 31.8476C51.581 30.0317 51.3206 28.4952 50.8 27.2381C50.2921 25.9683 49.5492 25.0095 48.5714 24.3619C47.5937 23.7016 46.4317 23.3714 45.0857 23.3714C43.7397 23.3714 42.5841 23.7016 41.619 24.3619C40.654 25.0095 39.9111 25.9683 39.3905 27.2381C38.8698 28.4952 38.6095 30.0317 38.6095 31.8476C38.6095 33.6635 38.8698 35.2 39.3905 36.4571C39.9111 37.7016 40.654 38.654 41.619 39.3143C42.5841 39.9746 43.7397 40.3111 45.0857 40.3238C46.4317 40.3111 47.5937 39.9746 48.5714 39.3143C49.5492 38.654 50.2921 37.7016 50.8 36.4571C51.3206 35.2 51.581 33.6635 51.581 31.8476Z" fill="white" style="fill:white;fill-opacity:1;"/>
<defs>
<linearGradient id="paint0_linear_3304_56" x1="43.7333" y1="18.5905" x2="13.5619" y2="52.8762" gradientUnits="userSpaceOnUse">
<stop stop-color="#2675F5" style="stop-color:#2675F5;stop-color:color(display-p3 0.1490 0.4602 0.9608);stop-opacity:1;"/>
<stop offset="1" stop-color="#235EDF" style="stop-color:#235EDF;stop-color:color(display-p3 0.1368 0.3699 0.8729);stop-opacity:1;"/>
</linearGradient>
</defs>
</svg>
