<svg width="1470" height="512" viewBox="0 0 1470 512" fill="none" xmlns="http://www.w3.org/2000/svg">
<path d="M639.461 370.59V143.048H699.167V322.19H791.868V370.59H639.461Z" fill="black" style="fill:black;fill-opacity:1;"/>
<path d="M899.653 373.733C844.661 373.733 811.822 338.219 811.665 285.733C811.822 233.248 844.661 197.733 899.653 197.733C954.645 197.733 987.483 233.248 987.326 285.733C987.483 338.219 954.645 373.733 899.653 373.733ZM872.314 285.419C872.471 312.448 882.527 329.576 899.967 329.733C916.622 329.576 926.835 312.448 926.677 285.419C926.835 258.076 916.622 240.948 899.967 241.105C882.527 240.948 872.471 258.076 872.314 285.419Z" fill="black" style="fill:black;fill-opacity:1;"/>
<path d="M1013.09 434.705V199.933H1071.86V229.476H1073.43C1079.87 212.662 1095.58 197.733 1121.51 197.733C1155.76 197.733 1188.44 223.976 1188.44 285.419C1188.44 344.19 1157.8 372.948 1120.88 372.79C1096.52 372.948 1080.34 359.59 1073.43 342.619H1072.49V434.705H1013.09ZM1071.23 285.105C1071.07 310.876 1081.76 327.062 1099.51 327.219C1117.11 327.062 1127.32 311.19 1127.48 285.105C1127.32 259.333 1117.26 243.462 1099.51 243.619C1081.6 243.462 1071.07 259.176 1071.23 285.105Z" fill="black" style="fill:black;fill-opacity:1;"/>
<path d="M1274.23 143.048V370.59H1214.84V143.048H1274.23Z" fill="black" style="fill:black;fill-opacity:1;"/>
<path d="M1387.04 373.733C1332.68 373.733 1299.52 340.89 1299.37 285.733C1299.52 232.933 1333.15 197.733 1385.78 197.733C1436.38 197.733 1469.84 230.262 1470 285.105V299.248H1358.13V301.448C1358.13 319.205 1369.29 331.619 1388.3 331.619C1401.34 331.619 1411.55 326.119 1415.32 316.219H1469.69C1463.87 351.419 1433.71 373.733 1387.04 373.733ZM1358.13 265.933H1415.01C1414.85 250.533 1402.91 239.69 1387.04 239.848C1371.17 239.69 1358.6 250.533 1358.13 265.933Z" fill="black" style="fill:black;fill-opacity:1;"/>
<path d="M0 124.83C0 81.1357 0 59.2883 8.5079 42.5991C15.9916 27.9189 27.9331 15.9835 42.6208 8.50357C59.3185 0 81.177 0 124.894 0H387.367C431.083 0 452.942 0 469.64 8.50357C484.327 15.9835 496.268 27.9189 503.752 42.5991C512.261 59.2883 512.26 81.1357 512.26 124.83V387.17C512.26 430.864 512.261 452.712 503.752 469.401C496.268 484.081 484.327 496.016 469.64 503.496C452.942 512 431.083 512 387.367 512H124.894C81.177 512 59.3185 512 42.6208 503.496C27.9331 496.016 15.9916 484.081 8.5079 469.401C0 452.712 0 430.864 0 387.17V124.83Z" fill="url(#paint0_linear_3389_335)" style=""/>
<path d="M0 124.83C0 81.1357 0 59.2883 8.5079 42.5991C15.9916 27.9189 27.9331 15.9835 42.6208 8.50357C59.3185 0 81.177 0 124.894 0H387.367C431.083 0 452.942 0 469.64 8.50357C484.327 15.9835 496.268 27.9189 503.752 42.5991C512.261 59.2883 512.26 81.1357 512.26 124.83V387.17C512.26 430.864 512.261 452.712 503.752 469.401C496.268 484.081 484.327 496.016 469.64 503.496C452.942 512 431.083 512 387.367 512H124.894C81.177 512 59.3185 512 42.6208 503.496C27.9331 496.016 15.9916 484.081 8.5079 469.401C0 452.712 0 430.864 0 387.17V124.83Z" fill="url(#paint1_linear_3389_335)" style=""/>
<path d="M307.156 399.848C307.156 426.778 285.328 448.61 258.401 448.61C231.475 448.61 209.646 426.778 209.646 399.848C209.646 372.917 231.475 351.086 258.401 351.086C285.328 351.086 307.156 372.917 307.156 399.848Z" fill="white" style="fill:white;fill-opacity:1;"/>
<path d="M321.783 121.905C321.784 160.914 297.405 273.067 292.529 292.571C287.654 312.076 277.903 326.705 258.401 326.705C238.899 326.705 229.148 312.076 224.272 292.571C219.397 273.067 195.02 160.914 195.02 121.905C195.02 87.6844 223.396 58.5143 258.401 58.5143C293.405 58.5143 321.783 87.6845 321.783 121.905Z" fill="white" style="fill:white;fill-opacity:1;"/>
<defs>
<linearGradient id="paint0_linear_3389_335" x1="1004.5" y1="148.724" x2="868.138" y2="593.622" gradientUnits="userSpaceOnUse">
<stop stop-color="#2675F5" style="stop-color:#2675F5;stop-color:color(display-p3 0.1490 0.4602 0.9608);stop-opacity:1;"/>
<stop offset="1" stop-color="#235EDF" style="stop-color:#235EDF;stop-color:color(display-p3 0.1368 0.3699 0.8729);stop-opacity:1;"/>
</linearGradient>
<linearGradient id="paint1_linear_3389_335" x1="1004.5" y1="148.724" x2="868.138" y2="593.622" gradientUnits="userSpaceOnUse">
<stop stop-color="#2675F5" style="stop-color:#2675F5;stop-color:color(display-p3 0.1490 0.4602 0.9608);stop-opacity:1;"/>
<stop offset="1" stop-color="#235EDF" style="stop-color:#235EDF;stop-color:color(display-p3 0.1368 0.3699 0.8729);stop-opacity:1;"/>
</linearGradient>
</defs>
</svg>
