<svg width="192" height="192" viewBox="0 0 192 192" fill="none" xmlns="http://www.w3.org/2000/svg">
<path d="M0 46.8114C0 30.4259 0 22.2331 3.18884 15.9747C5.99382 10.4696 10.4696 5.99382 15.9747 3.18884C22.2331 0 30.4259 0 46.8114 0H145.189C161.574 0 169.767 0 176.025 3.18884C181.53 5.99382 186.006 10.4696 188.811 15.9747C192 22.2331 192 30.4259 192 46.8114V145.189C192 161.574 192 169.767 188.811 176.025C186.006 181.53 181.53 186.006 176.025 188.811C169.767 192 161.574 192 145.189 192H46.8114C30.4259 192 22.2331 192 15.9747 188.811C10.4696 186.006 5.99382 181.53 3.18884 176.025C0 169.767 0 161.574 0 145.189V46.8114Z" fill="url(#paint0_linear_3304_50)" style=""/>
<path d="M67.8857 54.1714H82.1143L68.5143 136.914H54.2857L67.8857 54.1714ZM19.8286 102.8H85.1429L82.7429 117.086H17.3714L19.8286 102.8ZM38.7429 54.1714H52.9714L39.4857 136.914H25.1429L38.7429 54.1714ZM24.5143 74H89.8857L87.4857 88.2857H22.1143L24.5143 74Z" fill="white" style="fill:white;fill-opacity:1;"/>
<path d="M174.629 95.5429C174.629 104.419 172.914 112.057 169.486 118.457C166.057 124.819 161.371 129.676 155.429 133.029C149.486 136.381 142.762 138.057 135.257 138.057C127.752 138.057 121.029 136.381 115.086 133.029C109.143 129.676 104.457 124.8 101.029 118.4C97.6381 112 95.9429 104.381 95.9429 95.5429C95.9429 86.6667 97.6381 79.0286 101.029 72.6286C104.457 66.1905 109.143 61.3143 115.086 58C121.029 54.6857 127.752 53.0286 135.257 53.0286C142.762 53.0286 149.486 54.6857 155.429 58C161.371 61.3143 166.057 66.1905 169.486 72.6286C172.914 79.0286 174.629 86.6667 174.629 95.5429ZM154.743 95.5429C154.743 90.0952 153.962 85.4857 152.4 81.7143C150.876 77.9048 148.648 75.0286 145.714 73.0857C142.781 71.1048 139.295 70.1143 135.257 70.1143C131.219 70.1143 127.752 71.1048 124.857 73.0857C121.962 75.0286 119.733 77.9048 118.171 81.7143C116.61 85.4857 115.829 90.0952 115.829 95.5429C115.829 100.99 116.61 105.6 118.171 109.371C119.733 113.105 121.962 115.962 124.857 117.943C127.752 119.924 131.219 120.933 135.257 120.971C139.295 120.933 142.781 119.924 145.714 117.943C148.648 115.962 150.876 113.105 152.4 109.371C153.962 105.6 154.743 100.99 154.743 95.5429Z" fill="white" style="fill:white;fill-opacity:1;"/>
<defs>
<linearGradient id="paint0_linear_3304_50" x1="131.2" y1="55.7714" x2="40.6857" y2="158.629" gradientUnits="userSpaceOnUse">
<stop stop-color="#2675F5" style="stop-color:#2675F5;stop-color:color(display-p3 0.1490 0.4602 0.9608);stop-opacity:1;"/>
<stop offset="1" stop-color="#235EDF" style="stop-color:#235EDF;stop-color:color(display-p3 0.1368 0.3699 0.8729);stop-opacity:1;"/>
</linearGradient>
</defs>
</svg>
