<svg width="96" height="96" viewBox="0 0 96 96" fill="none" xmlns="http://www.w3.org/2000/svg">
<path d="M0 23.4057C0 15.2129 0 11.1166 1.59442 7.98734C2.99691 5.2348 5.2348 2.99691 7.98734 1.59442C11.1166 0 15.2129 0 23.4057 0H72.5943C80.7871 0 84.8834 0 88.0127 1.59442C90.7652 2.99691 93.0031 5.2348 94.4056 7.98734C96 11.1166 96 15.2129 96 23.4057V72.5943C96 80.7871 96 84.8834 94.4056 88.0127C93.0031 90.7652 90.7652 93.0031 88.0127 94.4056C84.8834 96 80.7871 96 72.5943 96H23.4057C15.2129 96 11.1166 96 7.98734 94.4056C5.2348 93.0031 2.99691 90.7652 1.59442 88.0127C0 84.8834 0 80.7871 0 72.5943V23.4057Z" fill="url(#paint0_linear_3304_54)" style=""/>
<path d="M33.9429 27.0857H41.0571L34.2571 68.4571H27.1429L33.9429 27.0857ZM9.91429 51.4H42.5714L41.3714 58.5429H8.68571L9.91429 51.4ZM19.3714 27.0857H26.4857L19.7429 68.4571H12.5714L19.3714 27.0857ZM12.2571 37H44.9429L43.7429 44.1429H11.0571L12.2571 37Z" fill="white" style="fill:white;fill-opacity:1;"/>
<path d="M87.3143 47.7714C87.3143 52.2095 86.4571 56.0286 84.7429 59.2286C83.0286 62.4095 80.6857 64.8381 77.7143 66.5143C74.7429 68.1905 71.381 69.0286 67.6286 69.0286C63.8762 69.0286 60.5143 68.1905 57.5429 66.5143C54.5714 64.8381 52.2286 62.4 50.5143 59.2C48.819 56 47.9714 52.1905 47.9714 47.7714C47.9714 43.3333 48.819 39.5143 50.5143 36.3143C52.2286 33.0952 54.5714 30.6571 57.5429 29C60.5143 27.3429 63.8762 26.5143 67.6286 26.5143C71.381 26.5143 74.7429 27.3429 77.7143 29C80.6857 30.6571 83.0286 33.0952 84.7429 36.3143C86.4571 39.5143 87.3143 43.3333 87.3143 47.7714ZM77.3714 47.7714C77.3714 45.0476 76.981 42.7429 76.2 40.8571C75.4381 38.9524 74.3238 37.5143 72.8571 36.5429C71.3905 35.5524 69.6476 35.0571 67.6286 35.0571C65.6095 35.0571 63.8762 35.5524 62.4286 36.5429C60.981 37.5143 59.8667 38.9524 59.0857 40.8571C58.3048 42.7429 57.9143 45.0476 57.9143 47.7714C57.9143 50.4952 58.3048 52.8 59.0857 54.6857C59.8667 56.5524 60.981 57.981 62.4286 58.9714C63.8762 59.9619 65.6095 60.4667 67.6286 60.4857C69.6476 60.4667 71.3905 59.9619 72.8571 58.9714C74.3238 57.981 75.4381 56.5524 76.2 54.6857C76.981 52.8 77.3714 50.4952 77.3714 47.7714Z" fill="white" style="fill:white;fill-opacity:1;"/>
<defs>
<linearGradient id="paint0_linear_3304_54" x1="65.6" y1="27.8857" x2="20.3429" y2="79.3143" gradientUnits="userSpaceOnUse">
<stop stop-color="#2675F5" style="stop-color:#2675F5;stop-color:color(display-p3 0.1490 0.4602 0.9608);stop-opacity:1;"/>
<stop offset="1" stop-color="#235EDF" style="stop-color:#235EDF;stop-color:color(display-p3 0.1368 0.3699 0.8729);stop-opacity:1;"/>
</linearGradient>
</defs>
</svg>
