<svg width="128" height="128" viewBox="0 0 128 128" fill="none" xmlns="http://www.w3.org/2000/svg">
<path d="M0 31.2076C0 20.2839 0 14.8221 2.12589 10.6498C3.99588 6.97973 6.97973 3.99588 10.6498 2.12589C14.8221 0 20.2839 0 31.2076 0H96.7924C107.716 0 113.178 0 117.35 2.12589C121.02 3.99588 124.004 6.97973 125.874 10.6498C128 14.8221 128 20.2839 128 31.2076V96.7924C128 107.716 128 113.178 125.874 117.35C124.004 121.02 121.02 124.004 117.35 125.874C113.178 128 107.716 128 96.7924 128H31.2076C20.2839 128 14.8221 128 10.6498 125.874C6.97973 124.004 3.99588 121.02 2.12589 117.35C0 113.178 0 107.716 0 96.7924V31.2076Z" fill="url(#paint0_linear_3304_52)" style=""/>
<path d="M45.2571 36.1143H54.7429L45.6762 91.2762H36.1905L45.2571 36.1143ZM13.219 68.5333H56.7619L55.1619 78.0571H11.581L13.219 68.5333ZM25.8286 36.1143H35.3143L26.3238 91.2762H16.7619L25.8286 36.1143ZM16.3429 49.3333H59.9238L58.3238 58.8571H14.7429L16.3429 49.3333Z" fill="white" style="fill:white;fill-opacity:1;"/>
<path d="M116.419 63.6952C116.419 69.6127 115.276 74.7048 112.99 78.9714C110.705 83.2127 107.581 86.4508 103.619 88.6857C99.6571 90.9206 95.1746 92.0381 90.1714 92.0381C85.1683 92.0381 80.6857 90.9206 76.7238 88.6857C72.7619 86.4508 69.6381 83.2 67.3524 78.9333C65.0921 74.6667 63.9619 69.5873 63.9619 63.6952C63.9619 57.7778 65.0921 52.6857 67.3524 48.419C69.6381 44.127 72.7619 40.8762 76.7238 38.6667C80.6857 36.4571 85.1683 35.3524 90.1714 35.3524C95.1746 35.3524 99.6571 36.4571 103.619 38.6667C107.581 40.8762 110.705 44.127 112.99 48.419C115.276 52.6857 116.419 57.7778 116.419 63.6952ZM103.162 63.6952C103.162 60.0635 102.641 56.9905 101.6 54.4762C100.584 51.9365 99.0984 50.019 97.1429 48.7238C95.1873 47.4032 92.8635 46.7429 90.1714 46.7429C87.4794 46.7429 85.1683 47.4032 83.2381 48.7238C81.3079 50.019 79.8222 51.9365 78.781 54.4762C77.7397 56.9905 77.2191 60.0635 77.2191 63.6952C77.2191 67.327 77.7397 70.4 78.781 72.9143C79.8222 75.4032 81.3079 77.3079 83.2381 78.6286C85.1683 79.9492 87.4794 80.6222 90.1714 80.6476C92.8635 80.6222 95.1873 79.9492 97.1429 78.6286C99.0984 77.3079 100.584 75.4032 101.6 72.9143C102.641 70.4 103.162 67.327 103.162 63.6952Z" fill="white" style="fill:white;fill-opacity:1;"/>
<defs>
<linearGradient id="paint0_linear_3304_52" x1="87.4667" y1="37.181" x2="27.1238" y2="105.752" gradientUnits="userSpaceOnUse">
<stop stop-color="#2675F5" style="stop-color:#2675F5;stop-color:color(display-p3 0.1490 0.4602 0.9608);stop-opacity:1;"/>
<stop offset="1" stop-color="#235EDF" style="stop-color:#235EDF;stop-color:color(display-p3 0.1368 0.3699 0.8729);stop-opacity:1;"/>
</linearGradient>
</defs>
</svg>
