<svg width="1184" height="512" viewBox="0 0 1184 512" fill="none" xmlns="http://www.w3.org/2000/svg">
<path d="M896.47 330.99V371.848H630.855V330.99H738.358V293.905H659.774V191.133H817.886V168.505H659.46V128.276H867.865V230.105H710.382V253.362H874.466V293.905H788.338V330.99H896.47Z" fill="black" style="fill:black;fill-opacity:1;"/>
<path d="M1161.05 118.533V155.619H1127.73V182.019H1158.54V219.419H943.847V182.019H974.337V155.619H941.018V118.533H1161.05ZM918.7 267.819V228.533H1184V267.819H918.7ZM948.247 400.448V322.19H1102.9V313.705H948.562V278.505H1152.57V355.505H997.598V363.99H1159.48V400.448H948.247ZM1024.63 182.019H1076.81V155.619H1024.63V182.019Z" fill="black" style="fill:black;fill-opacity:1;"/>
<path d="M0 124.83C0 81.1357 0 59.2883 8.51049 42.5991C15.9965 27.9189 27.9416 15.9835 42.6338 8.50357C59.3366 0 81.2018 0 124.932 0H387.485C431.215 0 453.081 0 469.783 8.50357C484.475 15.9835 496.42 27.9189 503.906 42.5991C512.417 59.2883 512.417 81.1357 512.417 124.83V387.17C512.417 430.864 512.417 452.712 503.906 469.401C496.42 484.081 484.475 496.016 469.783 503.496C453.081 512 431.215 512 387.485 512H124.932C81.2018 512 59.3366 512 42.6338 503.496C27.9416 496.016 15.9965 484.081 8.51049 469.401C0 452.712 0 430.864 0 387.17V124.83Z" fill="url(#paint0_linear_3389_318)" style=""/>
<path d="M0 124.83C0 81.1357 0 59.2883 8.51049 42.5991C15.9965 27.9189 27.9416 15.9835 42.6338 8.50357C59.3366 0 81.2018 0 124.932 0H387.485C431.215 0 453.081 0 469.783 8.50357C484.475 15.9835 496.42 27.9189 503.906 42.5991C512.417 59.2883 512.417 81.1357 512.417 124.83V387.17C512.417 430.864 512.417 452.712 503.906 469.401C496.42 484.081 484.475 496.016 469.783 503.496C453.081 512 431.215 512 387.485 512H124.932C81.2018 512 59.3366 512 42.6338 503.496C27.9416 496.016 15.9965 484.081 8.51049 469.401C0 452.712 0 430.864 0 387.17V124.83Z" fill="url(#paint1_linear_3389_318)" style=""/>
<path d="M307.25 399.848C307.25 426.778 285.415 448.61 258.48 448.61C231.545 448.61 209.71 426.778 209.71 399.848C209.71 372.917 231.545 351.086 258.48 351.086C285.415 351.086 307.25 372.917 307.25 399.848Z" fill="white" style="fill:white;fill-opacity:1;"/>
<path d="M321.882 121.905C321.882 160.914 297.495 273.067 292.618 292.571C287.741 312.076 277.988 326.705 258.48 326.705C238.972 326.705 229.218 312.076 224.341 292.571C219.464 273.067 195.08 160.914 195.08 121.905C195.08 87.6844 223.464 58.5143 258.48 58.5143C293.495 58.5143 321.881 87.6845 321.882 121.905Z" fill="white" style="fill:white;fill-opacity:1;"/>
<defs>
<linearGradient id="paint0_linear_3389_318" x1="809.067" y1="148.724" x2="647.288" y2="573.854" gradientUnits="userSpaceOnUse">
<stop stop-color="#2675F5" style="stop-color:#2675F5;stop-color:color(display-p3 0.1490 0.4602 0.9608);stop-opacity:1;"/>
<stop offset="1" stop-color="#235EDF" style="stop-color:#235EDF;stop-color:color(display-p3 0.1368 0.3699 0.8729);stop-opacity:1;"/>
</linearGradient>
<linearGradient id="paint1_linear_3389_318" x1="809.067" y1="148.724" x2="647.288" y2="573.854" gradientUnits="userSpaceOnUse">
<stop stop-color="#2675F5" style="stop-color:#2675F5;stop-color:color(display-p3 0.1490 0.4602 0.9608);stop-opacity:1;"/>
<stop offset="1" stop-color="#235EDF" style="stop-color:#235EDF;stop-color:color(display-p3 0.1368 0.3699 0.8729);stop-opacity:1;"/>
</linearGradient>
</defs>
</svg>
