<svg width="512" height="512" viewBox="0 0 512 512" fill="none" xmlns="http://www.w3.org/2000/svg">
<path d="M0 124.83C0 81.1357 0 59.2883 8.50357 42.5991C15.9835 27.9189 27.9189 15.9835 42.5991 8.50357C59.2883 0 81.1357 0 124.83 0H387.17C430.864 0 452.712 0 469.401 8.50357C484.081 15.9835 496.016 27.9189 503.496 42.5991C512 59.2883 512 81.1357 512 124.83V387.17C512 430.864 512 452.712 503.496 469.401C496.016 484.081 484.081 496.016 469.401 503.496C452.712 512 430.864 512 387.17 512H124.83C81.1357 512 59.2883 512 42.5991 503.496C27.9189 496.016 15.9835 484.081 8.50357 469.401C0 452.712 0 430.864 0 387.17V124.83Z" fill="url(#paint0_linear_3304_44)" style=""/>
<path d="M181.029 144.457H218.971L182.705 365.105H144.762L181.029 144.457ZM52.8762 274.133H227.048L220.648 312.229H46.3238L52.8762 274.133ZM103.314 144.457H141.257L105.295 365.105H67.0476L103.314 144.457ZM65.3714 197.333H239.695L233.295 235.429H58.9714L65.3714 197.333Z" fill="white" style="fill:white;fill-opacity:1;"/>
<path d="M465.676 254.781C465.676 278.451 461.105 298.819 451.962 315.886C442.819 332.851 430.324 345.803 414.476 354.743C398.629 363.683 380.698 368.152 360.686 368.152C340.673 368.152 322.743 363.683 306.895 354.743C291.048 345.803 278.552 332.8 269.41 315.733C260.368 298.667 255.848 278.349 255.848 254.781C255.848 231.111 260.368 210.743 269.41 193.676C278.552 176.508 291.048 163.505 306.895 154.667C322.743 145.829 340.673 141.41 360.686 141.41C380.698 141.41 398.629 145.829 414.476 154.667C430.324 163.505 442.819 176.508 451.962 193.676C461.105 210.743 465.676 231.111 465.676 254.781ZM412.648 254.781C412.648 240.254 410.565 227.962 406.4 217.905C402.337 207.746 396.394 200.076 388.571 194.895C380.749 189.613 371.454 186.971 360.686 186.971C349.917 186.971 340.673 189.613 332.952 194.895C325.232 200.076 319.289 207.746 315.124 217.905C310.959 227.962 308.876 240.254 308.876 254.781C308.876 269.308 310.959 281.6 315.124 291.657C319.289 301.613 325.232 309.232 332.952 314.514C340.673 319.797 349.917 322.489 360.686 322.59C371.454 322.489 380.749 319.797 388.571 314.514C396.394 309.232 402.337 301.613 406.4 291.657C410.565 281.6 412.648 269.308 412.648 254.781Z" fill="white" style="fill:white;fill-opacity:1;"/>
<defs>
<linearGradient id="paint0_linear_3304_44" x1="349.867" y1="148.724" x2="108.495" y2="423.01" gradientUnits="userSpaceOnUse">
<stop stop-color="#2675F5" style="stop-color:#2675F5;stop-color:color(display-p3 0.1490 0.4602 0.9608);stop-opacity:1;"/>
<stop offset="1" stop-color="#235EDF" style="stop-color:#235EDF;stop-color:color(display-p3 0.1368 0.3699 0.8729);stop-opacity:1;"/>
</linearGradient>
</defs>
</svg>
