<svg width="512" height="512" viewBox="0 0 512 512" fill="none" xmlns="http://www.w3.org/2000/svg">
<path d="M0 124.83C0 81.1357 0 59.2883 8.50357 42.5991C15.9835 27.9189 27.9189 15.9835 42.5991 8.50357C59.2883 0 81.1357 0 124.83 0H387.17C430.864 0 452.712 0 469.401 8.50357C484.081 15.9835 496.016 27.9189 503.496 42.5991C512 59.2883 512 81.1357 512 124.83V387.17C512 430.864 512 452.712 503.496 469.401C496.016 484.081 484.081 496.016 469.401 503.496C452.712 512 430.864 512 387.17 512H124.83C81.1357 512 59.2883 512 42.5991 503.496C27.9189 496.016 15.9835 484.081 8.50357 469.401C0 452.712 0 430.864 0 387.17V124.83Z" fill="url(#paint0_linear_3389_299)" style=""/>
<path d="M0 124.83C0 81.1357 0 59.2883 8.50357 42.5991C15.9835 27.9189 27.9189 15.9835 42.5991 8.50357C59.2883 0 81.1357 0 124.83 0H387.17C430.864 0 452.712 0 469.401 8.50357C484.081 15.9835 496.016 27.9189 503.496 42.5991C512 59.2883 512 81.1357 512 124.83V387.17C512 430.864 512 452.712 503.496 469.401C496.016 484.081 484.081 496.016 469.401 503.496C452.712 512 430.864 512 387.17 512H124.83C81.1357 512 59.2883 512 42.5991 503.496C27.9189 496.016 15.9835 484.081 8.50357 469.401C0 452.712 0 430.864 0 387.17V124.83Z" fill="url(#paint1_linear_3389_299)" style=""/>
<path d="M307 399.848C307 426.778 285.183 448.61 258.27 448.61C231.357 448.61 209.54 426.778 209.54 399.848C209.54 372.917 231.357 351.086 258.27 351.086C285.183 351.086 307 372.917 307 399.848Z" fill="white" style="fill:white;fill-opacity:1;"/>
<path d="M321.62 121.905C321.62 160.914 297.253 273.067 292.38 292.571C287.507 312.076 277.761 326.705 258.269 326.705C238.777 326.705 229.031 312.076 224.158 292.571C219.285 273.067 194.921 160.914 194.921 121.905C194.921 87.6844 223.282 58.5143 258.269 58.5143C293.256 58.5143 321.619 87.6845 321.62 121.905Z" fill="white" style="fill:white;fill-opacity:1;"/>
<defs>
<linearGradient id="paint0_linear_3389_299" x1="349.867" y1="148.724" x2="108.495" y2="423.01" gradientUnits="userSpaceOnUse">
<stop stop-color="#2675F5" style="stop-color:#2675F5;stop-color:color(display-p3 0.1490 0.4602 0.9608);stop-opacity:1;"/>
<stop offset="1" stop-color="#235EDF" style="stop-color:#235EDF;stop-color:color(display-p3 0.1368 0.3699 0.8729);stop-opacity:1;"/>
</linearGradient>
<linearGradient id="paint1_linear_3389_299" x1="349.867" y1="148.724" x2="108.495" y2="423.01" gradientUnits="userSpaceOnUse">
<stop stop-color="#2675F5" style="stop-color:#2675F5;stop-color:color(display-p3 0.1490 0.4602 0.9608);stop-opacity:1;"/>
<stop offset="1" stop-color="#235EDF" style="stop-color:#235EDF;stop-color:color(display-p3 0.1368 0.3699 0.8729);stop-opacity:1;"/>
</linearGradient>
</defs>
</svg>
