<svg width="1228" height="512" viewBox="0 0 1228 512" fill="none" xmlns="http://www.w3.org/2000/svg">
<path d="M0 124.83C0 81.1357 0 59.2883 8.50357 42.5991C15.9835 27.9189 27.9189 15.9835 42.5991 8.50357C59.2883 0 81.1357 0 124.83 0H387.17C430.864 0 452.712 0 469.401 8.50357C484.081 15.9835 496.016 27.9189 503.496 42.5991C512 59.2883 512 81.1357 512 124.83V387.17C512 430.864 512 452.712 503.496 469.401C496.016 484.081 484.081 496.016 469.401 503.496C452.712 512 430.864 512 387.17 512H124.83C81.1357 512 59.2883 512 42.5991 503.496C27.9189 496.016 15.9835 484.081 8.50357 469.401C0 452.712 0 430.864 0 387.17V124.83Z" fill="url(#paint0_linear_3304_76)" style=""/>
<path d="M181.029 144.457H218.971L182.705 365.105H144.762L181.029 144.457ZM52.8762 274.133H227.048L220.648 312.229H46.3238L52.8762 274.133ZM103.314 144.457H141.257L105.295 365.105H67.0476L103.314 144.457ZM65.3714 197.333H239.695L233.295 235.429H58.9714L65.3714 197.333Z" fill="white" style="fill:white;fill-opacity:1;"/>
<path d="M465.676 254.781C465.676 278.451 461.105 298.819 451.962 315.886C442.819 332.851 430.324 345.803 414.476 354.743C398.629 363.683 380.698 368.152 360.686 368.152C340.673 368.152 322.743 363.683 306.895 354.743C291.048 345.803 278.552 332.8 269.41 315.733C260.368 298.667 255.848 278.349 255.848 254.781C255.848 231.111 260.368 210.743 269.41 193.676C278.552 176.508 291.048 163.505 306.895 154.667C322.743 145.829 340.673 141.41 360.686 141.41C380.698 141.41 398.629 145.829 414.476 154.667C430.324 163.505 442.819 176.508 451.962 193.676C461.105 210.743 465.676 231.111 465.676 254.781ZM412.648 254.781C412.648 240.254 410.565 227.962 406.4 217.905C402.337 207.746 396.394 200.076 388.571 194.895C380.749 189.613 371.454 186.971 360.686 186.971C349.917 186.971 340.673 189.613 332.952 194.895C325.232 200.076 319.289 207.746 315.124 217.905C310.959 227.962 308.876 240.254 308.876 254.781C308.876 269.308 310.959 281.6 315.124 291.657C319.289 301.613 325.232 309.232 332.952 314.514C340.673 319.797 349.917 322.489 360.686 322.59C371.454 322.489 380.749 319.797 388.571 314.514C396.394 309.232 402.337 301.613 406.4 291.657C410.565 281.6 412.648 269.308 412.648 254.781Z" fill="white" style="fill:white;fill-opacity:1;"/>
<path d="M781.725 329.964H731.207V259.472H781.725V329.964ZM922.967 336.611H872.623V94.6997H922.967V336.611ZM929.784 410.251H686.981V369.845H929.784V410.251ZM737.5 380.34H686.981V313.521H737.5V380.34ZM648 234.809C690.652 234.459 728.06 233.642 760.224 232.36C792.505 231.077 823.445 228.628 853.045 225.013L855.667 261.046C824.669 266.294 792.272 269.85 758.476 271.716C724.797 273.582 689.895 274.457 653.769 274.34L648 234.809ZM883.636 313.696H812.84V279.762H883.636V313.696ZM752.008 104.845C767.275 104.728 781.026 107.177 793.262 112.191C805.615 117.089 815.229 123.969 822.105 132.832C828.981 141.578 832.418 151.548 832.418 162.743C832.418 174.054 828.981 184.024 822.105 192.653C815.229 201.166 805.673 207.813 793.437 212.594C781.201 217.375 767.391 219.766 752.008 219.766C736.16 219.766 722.117 217.375 709.881 212.594C697.761 207.813 688.263 201.166 681.388 192.653C674.512 184.141 671.074 174.171 671.074 162.743C671.074 151.548 674.512 141.519 681.388 132.657C688.263 123.678 697.819 116.798 710.055 112.017C722.292 107.119 736.276 104.728 752.008 104.845ZM752.008 141.403C745.249 141.519 739.364 142.336 734.353 143.851C729.459 145.367 725.613 147.758 722.816 151.023C720.019 154.172 718.679 158.078 718.796 162.743C718.679 167.407 720.019 171.314 722.816 174.462C725.613 177.494 729.459 179.826 734.353 181.459C739.364 182.975 745.249 183.733 752.008 183.733C758.418 183.733 764.07 182.975 768.964 181.459C773.859 179.826 777.646 177.436 780.327 174.287C783.124 171.139 784.522 167.29 784.522 162.743C784.522 158.195 783.124 154.288 780.327 151.023C777.646 147.758 773.859 145.367 768.964 143.851C764.07 142.336 758.418 141.519 752.008 141.403Z" fill="black" style="fill:black;fill-opacity:1;"/>
<path d="M1076.44 141.053C1076.33 160.877 1072.95 179.418 1066.31 196.677C1059.66 213.818 1049.41 228.861 1035.54 241.805C1021.67 254.633 1004.48 264.078 983.973 270.142L958.277 230.785C975.991 225.888 990.616 218.774 1002.15 209.446C1013.69 200.117 1022.08 189.563 1027.32 177.785C1032.69 166.008 1035.37 153.763 1035.37 141.053V121.812H1076.44V141.053ZM1086.41 141.053C1086.41 153.064 1088.97 164.608 1094.1 175.686C1099.34 186.765 1107.56 196.735 1118.75 205.597C1129.93 214.343 1144.15 220.99 1161.4 225.538L1136.4 264.894C1116.01 259.18 1098.99 250.201 1085.36 237.957C1071.84 225.596 1061.76 211.136 1055.12 194.578C1048.59 178.019 1045.39 160.177 1045.5 141.053V121.812H1086.41V141.053ZM1148.11 150.673H972.087V110.792H1148.11V150.673ZM1228 268.743H1177.48V94H1228V268.743ZM1061.06 308.449H1177.66V281.162H1228V412H1011.59V281.162H1061.06V308.449ZM1177.66 371.594V347.106H1061.06V371.594H1177.66Z" fill="black" style="fill:black;fill-opacity:1;"/>
<defs>
<linearGradient id="paint0_linear_3304_76" x1="349.867" y1="148.724" x2="108.495" y2="423.01" gradientUnits="userSpaceOnUse">
<stop stop-color="#2675F5" style="stop-color:#2675F5;stop-color:color(display-p3 0.1490 0.4602 0.9608);stop-opacity:1;"/>
<stop offset="1" stop-color="#235EDF" style="stop-color:#235EDF;stop-color:color(display-p3 0.1368 0.3699 0.8729);stop-opacity:1;"/>
</linearGradient>
</defs>
</svg>
