<svg width="64" height="64" viewBox="0 0 64 64" fill="none" xmlns="http://www.w3.org/2000/svg">
<path d="M0 15.6038C0 10.142 0 7.41104 1.06295 5.32489C1.99794 3.48986 3.48986 1.99794 5.32489 1.06295C7.41104 0 10.142 0 15.6038 0H48.3963C53.858 0 56.589 0 58.6751 1.06295C60.5101 1.99794 62.002 3.48986 62.937 5.32489C64 7.41104 64 10.142 64 15.6038V48.3963C64 53.858 64 56.589 62.937 58.6751C62.002 60.5101 60.5101 62.002 58.6751 62.937C56.589 64 53.858 64 48.3963 64H15.6038C10.142 64 7.41104 64 5.32489 62.937C3.48986 62.002 1.99794 60.5101 1.06295 58.6751C0 56.589 0 53.858 0 48.3963V15.6038Z" fill="url(#paint0_linear_3389_306)" style=""/>
<path d="M0 15.6038C0 10.142 0 7.41104 1.06295 5.32489C1.99794 3.48986 3.48986 1.99794 5.32489 1.06295C7.41104 0 10.142 0 15.6038 0H48.3963C53.858 0 56.589 0 58.6751 1.06295C60.5101 1.99794 62.002 3.48986 62.937 5.32489C64 7.41104 64 10.142 64 15.6038V48.3963C64 53.858 64 56.589 62.937 58.6751C62.002 60.5101 60.5101 62.002 58.6751 62.937C56.589 64 53.858 64 48.3963 64H15.6038C10.142 64 7.41104 64 5.32489 62.937C3.48986 62.002 1.99794 60.5101 1.06295 58.6751C0 56.589 0 53.858 0 48.3963V15.6038Z" fill="url(#paint1_linear_3389_306)" style=""/>
<path d="M38.375 49.981C38.375 53.3473 35.6478 56.0762 32.2837 56.0762C28.9196 56.0762 26.1925 53.3473 26.1925 49.981C26.1925 46.6146 28.9196 43.8857 32.2837 43.8857C35.6478 43.8857 38.375 46.6146 38.375 49.981Z" fill="white" style="fill:white;fill-opacity:1;"/>
<path d="M40.2025 15.2381C40.2025 20.1143 37.1567 34.1333 36.5475 36.5714C35.9384 39.0095 34.7202 40.8381 32.2837 40.8381C29.8472 40.8381 28.6289 39.0095 28.0198 36.5714C27.4106 34.1333 24.3652 20.1143 24.3652 15.2381C24.3652 10.9606 27.9103 7.31429 32.2837 7.31429C36.657 7.31429 40.2024 10.9606 40.2025 15.2381Z" fill="white" style="fill:white;fill-opacity:1;"/>
<defs>
<linearGradient id="paint0_linear_3389_306" x1="43.7334" y1="18.5905" x2="13.5619" y2="52.8763" gradientUnits="userSpaceOnUse">
<stop stop-color="#2675F5" style="stop-color:#2675F5;stop-color:color(display-p3 0.1490 0.4602 0.9608);stop-opacity:1;"/>
<stop offset="1" stop-color="#235EDF" style="stop-color:#235EDF;stop-color:color(display-p3 0.1368 0.3699 0.8729);stop-opacity:1;"/>
</linearGradient>
<linearGradient id="paint1_linear_3389_306" x1="43.7334" y1="18.5905" x2="13.5619" y2="52.8763" gradientUnits="userSpaceOnUse">
<stop stop-color="#2675F5" style="stop-color:#2675F5;stop-color:color(display-p3 0.1490 0.4602 0.9608);stop-opacity:1;"/>
<stop offset="1" stop-color="#235EDF" style="stop-color:#235EDF;stop-color:color(display-p3 0.1368 0.3699 0.8729);stop-opacity:1;"/>
</linearGradient>
</defs>
</svg>
